<svg xmlns="http://www.w3.org/2000/svg" width="245.892" height="84.985" viewBox="0 0 245.892 84.985">
  <g id="logo" transform="translate(-0.131 0.023)">
    <path id="Path_1" data-name="Path 1" d="M220.5,15.584C234.663,9.428,256.379,4.178,281.117,1.61c44.566-4.683,82.106,1.057,83.806,12.765,1.284,8.8-18.015,18.468-46.6,24.738,22.207-6.458,36.294-14.88,35.048-22.4C351.44,5.084,313.634.024,268.918,5.387c-18.468,2.228-35.237,5.854-48.418,10.2" transform="translate(-137.141 0)" fill="#fff"/>
    <path id="Path_2" data-name="Path 2" d="M29.427,113.521a19.528,19.528,0,0,1-10.311,3.588c-8.2,0-11.444-5.741-9.668-13.861,1.511-6.987,6.723-14.578,15.6-14.578a8.944,8.944,0,0,1,7.893,4.381h.755c.793-1.662,1.473-3.286,2.3-4.91A23.167,23.167,0,0,0,25.65,85.8C14.018,85.8,3.216,91.465.5,103.928c-2.115,9.782,5.136,16.051,16.542,16.051a28.757,28.757,0,0,0,10.99-2.039l2.077-4.117-.68-.3" transform="translate(0 -53.41)" fill="#fff" fill-rule="evenodd"/>
    <path id="Path_3" data-name="Path 3" d="M83.4,135.829c1.246-.113,2.493-.227,3.739-.227,1.209,0,2.417.151,3.626.227l1.888-8.611a25.131,25.131,0,0,1,1.511-5.552,6.179,6.179,0,0,1,5.59-3.135,4.638,4.638,0,0,1,2.568.642l.567-.378a39.156,39.156,0,0,1,1.662-6.5c-5.212,0-8.2,2.87-10.046,6.345l1.284-5.892c-1.246.076-2.493.227-3.739.227-1.209,0-2.417-.151-3.626-.227L83.4,135.829" transform="translate(-51.821 -69.901)" fill="#fff" fill-rule="evenodd"/>
    <path id="Path_4" data-name="Path 4" d="M156.316,124.31c2.077-6.8.038-12.01-8.309-12.01-7.742,0-13.256,4.759-14.692,11.444-1.7,7.78,1.813,12.539,10.65,12.539a17.368,17.368,0,0,0,8.082-2.153l1.737-2.681-.566-.415a13.207,13.207,0,0,1-6.685,2.153c-5.665,0-6.685-3.966-5.476-8.875h15.258m-14.729-2.3c.642-2.53,2.115-7.591,6.005-7.591,3.21,0,2.417,5.061,1.888,7.591Z" transform="translate(-82.626 -69.901)" fill="#fff" fill-rule="evenodd"/>
    <path id="Path_5" data-name="Path 5" d="M215.082,94.387c4.268,0,3.475,5.778,2.87,8.535-.642,3.021-2.606,9.253-7.176,9.253-4.305,0-3.4-5.967-2.795-8.724.68-2.984,2.53-9.064,7.1-9.064M230.415,78.6c-1.246.113-2.493.264-3.739.264-1.209,0-2.417-.151-3.626-.264l-3.512,16.127c-1.02-2.493-3.361-3.437-6.5-3.437-7.025,0-11.557,5.967-12.879,12.01-1.322,6.156,0,11.972,7.893,11.972a9.722,9.722,0,0,0,8.309-4.608l-.906,4.192c1.171-.113,2.417-.227,3.626-.227,1.171,0,2.3.151,3.475.227Z" transform="translate(-124.207 -48.929)" fill="#fff" fill-rule="evenodd"/>
    <path id="Path_6" data-name="Path 6" d="M277.383,84.077a3.136,3.136,0,0,0,3.324,3.777,5.444,5.444,0,0,0,5.1-3.777c.453-2.039-1.171-3.777-3.437-3.777a5.274,5.274,0,0,0-4.985,3.777M271,115.915c1.246-.113,2.493-.227,3.739-.227,1.209,0,2.417.151,3.626.227L283.388,92.8c-1.246.076-2.493.227-3.739.227-1.209,0-2.417-.151-3.626-.227Z" transform="translate(-168.569 -49.987)" fill="#fff" fill-rule="evenodd"/>
    <path id="Path_7" data-name="Path 7" d="M322.253,102.706h4.532a9.927,9.927,0,0,1,.68-3.059h-4.532l1.813-8.347c-2.795,1.1-5.4,2.115-8.007,2.946l-1.171,5.4h-3.626a11.068,11.068,0,0,1-.642,3.059h3.626l-2.757,12.765c-.982,4.419-.453,7.7,5.1,7.7a19.765,19.765,0,0,0,5.778-1.1l.415-1.851c-4.985,1.1-4.8-.68-4.079-3.966l2.87-13.559" transform="translate(-193.649 -56.832)" fill="#fff" fill-rule="evenodd"/>
    <path id="Path_8" data-name="Path 8" d="M382.727,80.035c8.8,0,10.613,7.78,9.14,14.54-1.888,8.687-7.7,16.807-16.731,16.807-8.8,0-10.688-7.251-9.215-14.049,2.606-11.783,8.649-17.3,16.807-17.3m18.695,15.522c1.7-8.12-.944-18.657-17.637-18.657-14.616,0-24.964,8.46-27.23,18.884-2.568,11.9,4.683,18.733,17.637,18.733,14.352,0,25.04-8.724,27.23-18.959" transform="translate(-221.492 -47.871)" fill="#fff" fill-rule="evenodd"/>
    <path id="Path_9" data-name="Path 9" d="M471.7,132.071c1.36-.113,2.757-.264,4.117-.264s2.644.151,3.966.264l2.606-12.048c.718-3.324,2.039-9.442,7.176-9.442,4.117,0,4.041,3.55,2.984,8.46l-2.833,13.068c1.36-.113,2.757-.264,4.117-.264s2.681.151,4,.264l3.324-15.371c1.36-6.307.415-10.537-6.987-10.537-3.626,0-7.1,1.888-9.971,4.343l.831-3.89c-1.322.113-2.644.264-3.928.264-1.36,0-2.606-.151-3.852-.264L471.7,132.071" transform="translate(-293.47 -66.105)" fill="#fff" fill-rule="evenodd"/>
    <path id="Path_10" data-name="Path 10" d="M580.959,119.219c2.266-7.478.038-13.219-9.14-13.219-8.5,0-14.578,5.25-16.164,12.577-1.851,8.535,1.964,13.823,11.708,13.823a19.545,19.545,0,0,0,8.913-2.379l1.926-2.946-.6-.491a14.774,14.774,0,0,1-7.365,2.379c-6.232,0-7.365-4.343-6.043-9.782h16.769m-16.24-2.455c.718-2.795,2.342-8.347,6.609-8.347,3.512,0,2.681,5.552,2.039,8.347Z" transform="translate(-345.435 -65.981)" fill="#fff" fill-rule="evenodd"/>
    <path id="Path_11" data-name="Path 11" d="M140.508,197.12h1.057c2.3,0,3.777.642,3.361,2.87a3.72,3.72,0,0,1-3.739,2.908h-1.775l1.1-5.778m1.1-5.665H143c1.964,0,3.1.491,2.757,2.3a3.1,3.1,0,0,1-1.888,2.266,8.116,8.116,0,0,1-3.248.415Zm-4,12.123h2.681a7.237,7.237,0,0,0,4.117-.755,4.627,4.627,0,0,0,2.3-3.21c.415-2.191-1.435-2.87-2.87-2.946a4.5,4.5,0,0,0,3.626-3.361c.378-1.926-.944-2.606-3.7-2.606h-3.7Z" transform="translate(-85.551 -118.692)" fill="#fff" fill-rule="evenodd"/>
    <path id="Path_12" data-name="Path 12" d="M236.575,197.327h-4.154l2.984-4.834,1.171,4.834m0-7.327h-.453L227.7,203.219c.189,0,.415-.038.68-.038.227,0,.415.038.68.038.869-1.775,1.888-3.437,2.87-5.1h4.8c.415,1.737.755,3.55.982,5.1.3,0,.642-.038,1.02-.038.34,0,.6.038.982.038Z" transform="translate(-141.622 -118.256)" fill="#fff" fill-rule="evenodd"/>
    <path id="Path_13" data-name="Path 13" d="M434.346,190.8c-.264,0-.529.038-.755.038-.264,0-.491-.038-.755-.038l-5.552,4.8c-.3.264-.793.642-1.171.944-.227.151-.491.227-.491.113l1.133-5.816c-.3,0-.566.038-.831.038-.3,0-.567-.038-.831-.038L422.6,203.716c.264,0,.566-.038.831-.038s.529.038.831.038l1.284-6.572c0-.076.227-.038.3.038l3.172,4.8a12.463,12.463,0,0,1,.982,1.7c.34,0,.718-.038,1.057-.038.3,0,.642.038,1.02.038V203.6l-1.171-1.888c-1.171-1.737-2.417-3.437-3.588-5.174l1.926-1.624,5.1-4.117" transform="translate(-262.914 -118.754)" fill="#fff" fill-rule="evenodd"/>
    <path id="Path_14" data-name="Path 14" d="M336.645,190.8c-.189,0-.378.038-.529.038-.189,0-.34-.038-.529-.038l-1.888,9.706h-.189l-7.062-9.706h-.755L323.2,203.679c.189,0,.34-.038.529-.038.151,0,.34.038.529.038l1.964-10.159h.189l6.383,9.026c.3.453.6.869.755,1.133h.567l2.53-12.879" transform="translate(-201.054 -118.754)" fill="#fff" fill-rule="evenodd"/>
    <path id="Path_15" data-name="Path 15" d="M627.442,82.508a3.966,3.966,0,1,0,3.966-3.966,3.965,3.965,0,0,0-3.966,3.966m-.642,0a4.608,4.608,0,1,1,4.608,4.608,4.6,4.6,0,0,1-4.608-4.608" transform="translate(-389.992 -48.493)" fill="#fff"/>
    <path id="Path_16" data-name="Path 16" d="M634.3,88.236a3.052,3.052,0,0,1,.6-.038c.227,0,.415.038.6.038V85.819h.038c.189.3.415.642.529.831l.944,1.586a4.815,4.815,0,0,1,.718-.038c.264,0,.491.038.755.038l-.34-.453c-.491-.718-.982-1.4-1.4-2.115A1.347,1.347,0,0,0,638,84.346a1.132,1.132,0,0,0-.718-1.1A3.741,3.741,0,0,0,636,83.1h-1.7v5.136m1.209-4.721c.491,0,1.1-.076,1.209.567a1.419,1.419,0,0,1,.038.378c0,.755-.415,1.133-1.246,1.057Z" transform="translate(-394.66 -51.729)" fill="#fff" fill-rule="evenodd"/>
  </g>
</svg>
