<?xml version="1.0" encoding="utf-8"?>
<!-- Generator: Adobe Illustrator 21.0.2, SVG Export Plug-In . SVG Version: 6.00 Build 0)  -->
<svg version="1.1" id="Layer_1" xmlns="http://www.w3.org/2000/svg" xmlns:xlink="http://www.w3.org/1999/xlink" x="0px" y="0px"
	 width="651.2px" height="225px" viewBox="0 0 651.2 225" style="enable-background:new 0 0 651.2 225;" xml:space="preserve">
<style type="text/css">
	.st0{fill:#27628E;}
	.st1{fill-rule:evenodd;clip-rule:evenodd;}
	.st2{fill-rule:evenodd;clip-rule:evenodd;fill:#27628E;}
</style>
<path class="st0" d="M220.5,41.3c37.5-16.3,95-30.2,160.5-37C499-8.1,598.4,7.1,602.9,38.1c3.4,23.3-47.7,48.9-123.4,65.5
	c58.8-17.1,96.1-39.4,92.8-59.3c-5.1-30.8-105.2-44.2-223.6-30C299.8,20.2,255.4,29.8,220.5,41.3"/>
<path class="st1" d="M77.7,159.2c-7.5,5.4-18.6,9.5-27.3,9.5c-21.7,0-30.3-15.2-25.6-36.7c4-18.5,17.8-38.6,41.3-38.6
	c9.2,0,17.2,4.8,20.9,11.6h2c2.1-4.4,3.9-8.7,6.1-13c-7.3-4-18.1-6.2-27.4-6.2c-30.8,0-59.4,15-66.6,48
	c-5.6,25.9,13.6,42.5,43.8,42.5c9.5,0,19.8-1.5,29.1-5.4l5.5-10.9L77.7,159.2"/>
<path class="st1" d="M83.4,174.6c3.3-0.3,6.6-0.6,9.9-0.6c3.2,0,6.4,0.4,9.6,0.6l5-22.8c0.9-4.1,2-11,4-14.7
	c2.9-5.4,8.6-8.3,14.8-8.3c2.3,0,5.3,0.5,6.8,1.7l1.5-1c0.8-5.4,2.4-11.2,4.4-17.2c-13.8,0-21.7,7.6-26.6,16.8l3.4-15.6
	c-3.3,0.2-6.6,0.6-9.9,0.6c-3.2,0-6.4-0.4-9.6-0.6L83.4,174.6"/>
<path class="st1" d="M194.9,144.1c5.5-18,0.1-31.8-22-31.8c-20.5,0-35.1,12.6-38.9,30.3c-4.5,20.6,4.8,33.2,28.2,33.2
	c6.9,0,15-2.1,21.4-5.7l4.6-7.1l-1.5-1.1c-5.1,3.3-11.9,5.7-17.7,5.7c-15,0-17.7-10.5-14.5-23.5H194.9 M155.9,138
	c1.7-6.7,5.6-20.1,15.9-20.1c8.5,0,6.4,13.4,5,20.1H155.9z"/>
<path class="st1" d="M240.4,120.4c11.3,0,9.2,15.3,7.6,22.6c-1.7,8-6.9,24.5-19,24.5c-11.4,0-9-15.8-7.4-23.1
	C223.4,136.5,228.3,120.4,240.4,120.4 M281,78.6c-3.3,0.3-6.6,0.7-9.9,0.7c-3.2,0-6.4-0.4-9.6-0.7l-9.3,42.7
	c-2.7-6.6-8.9-9.1-17.2-9.1c-18.6,0-30.6,15.8-34.1,31.8c-3.5,16.3,0,31.7,20.9,31.7c9.3,0,17.4-4.8,22-12.2l-2.4,11.1
	c3.1-0.3,6.4-0.6,9.6-0.6c3.1,0,6.1,0.4,9.2,0.6L281,78.6z"/>
<path class="st1" d="M287.9,90.3c-1.2,5.3,2.8,10,8.8,10s12.3-4.6,13.5-10c1.2-5.4-3.1-10-9.1-10C295,80.3,289,85,287.9,90.3
	 M271,174.6c3.3-0.3,6.6-0.6,9.9-0.6c3.2,0,6.4,0.4,9.6,0.6l13.3-61.2c-3.3,0.2-6.6,0.6-9.9,0.6c-3.2,0-6.4-0.4-9.6-0.6L271,174.6z"
	/>
<path class="st1" d="M340.3,121.5h12c0.2-2.9,0.7-5.2,1.8-8.1h-12l4.8-22.1c-7.4,2.9-14.3,5.6-21.2,7.8l-3.1,14.3H313
	c-0.2,2.9-0.7,5.2-1.7,8.1h9.6l-7.3,33.8c-2.6,11.7-1.2,20.4,13.5,20.4c4.4,0,9.7-1.1,15.3-2.9l1.1-4.9
	c-13.2,2.9-12.7-1.8-10.8-10.5L340.3,121.5"/>
<path class="st2" d="M426.7,85.2c23.3,0,28.1,20.6,24.2,38.5c-5,23-20.4,44.5-44.3,44.5c-23.3,0-28.3-19.2-24.4-37.2
	C389.1,99.8,405.1,85.2,426.7,85.2 M476.2,126.3c4.5-21.5-2.5-49.4-46.7-49.4c-38.7,0-66.1,22.4-72.1,50
	c-6.8,31.5,12.4,49.6,46.7,49.6C442.1,176.5,470.4,153.4,476.2,126.3"/>
<path class="st2" d="M471.7,174.7c3.6-0.3,7.3-0.7,10.9-0.7c3.6,0,7,0.4,10.5,0.7l6.9-31.9c1.9-8.8,5.4-25,19-25
	c10.9,0,10.7,9.4,7.9,22.4l-7.5,34.6c3.6-0.3,7.3-0.7,10.9-0.7c3.6,0,7.1,0.4,10.6,0.7l8.8-40.7c3.6-16.7,1.1-27.9-18.5-27.9
	c-9.6,0-18.8,5-26.4,11.5l2.2-10.3c-3.5,0.3-7,0.7-10.4,0.7c-3.6,0-6.9-0.4-10.2-0.7L471.7,174.7"/>
<path class="st2" d="M623.4,141c6-19.8,0.1-35-24.2-35c-22.5,0-38.6,13.9-42.8,33.3c-4.9,22.6,5.2,36.6,31,36.6
	c7.6,0,16.5-2.4,23.6-6.3l5.1-7.8l-1.6-1.3c-5.6,3.6-13.2,6.3-19.5,6.3c-16.5,0-19.5-11.5-16-25.9H623.4 M580.4,134.4
	c1.9-7.4,6.2-22.1,17.5-22.1c9.3,0,7.1,14.7,5.4,22.1H580.4z"/>
<path class="st1" d="M145.3,207.7h2.8c6.1,0,10,1.7,8.9,7.6c-0.9,4.5-5,7.7-9.9,7.7h-4.7L145.3,207.7 M148.2,192.7h3.7
	c5.2,0,8.2,1.3,7.3,6.1c-0.5,2.7-2.4,4.9-5,6c-3,1.2-5.7,1.1-8.6,1.1L148.2,192.7z M137.6,224.8h7.1c3.4,0.1,7.6,0.1,10.9-2
	c3.3-2,5.5-4.9,6.1-8.5c1.1-5.8-3.8-7.6-7.6-7.8c4.6-1.1,8.7-4.1,9.6-8.9c1-5.1-2.5-6.9-9.8-6.9h-9.8L137.6,224.8z"/>
<path class="st1" d="M251.2,209.4h-11l7.9-12.8L251.2,209.4 M251.2,190H250L227.7,225c0.5,0,1.1-0.1,1.8-0.1c0.6,0,1.1,0.1,1.8,0.1
	c2.3-4.7,5-9.1,7.6-13.5h12.7c1.1,4.6,2,9.4,2.6,13.5c0.8,0,1.7-0.1,2.7-0.1c0.9,0,1.6,0.1,2.6,0.1L251.2,190z"/>
<path class="st1" d="M453.7,190.8c-0.7,0-1.4,0.1-2,0.1c-0.7,0-1.3-0.1-2-0.1L435,203.5c-0.8,0.7-2.1,1.7-3.1,2.5
	c-0.6,0.4-1.3,0.6-1.3,0.3l3-15.4c-0.8,0-1.5,0.1-2.2,0.1c-0.8,0-1.5-0.1-2.2-0.1l-6.6,34.1c0.7,0,1.5-0.1,2.2-0.1
	c0.7,0,1.4,0.1,2.2,0.1l3.4-17.4c0-0.2,0.6-0.1,0.8,0.1l8.4,12.7c1,1.4,1.8,2.9,2.6,4.5c0.9,0,1.9-0.1,2.8-0.1
	c0.8,0,1.7,0.1,2.7,0.1l0-0.2l-3.1-5c-3.1-4.6-6.4-9.1-9.5-13.7l5.1-4.3L453.7,190.8"/>
<path class="st1" d="M358.8,190.8c-0.5,0-1,0.1-1.4,0.1c-0.5,0-0.9-0.1-1.4-0.1l-5,25.7h-0.5l-18.7-25.7h-2l-6.6,34.1
	c0.5,0,0.9-0.1,1.4-0.1c0.4,0,0.9,0.1,1.4,0.1l5.2-26.9h0.5l16.9,23.9c0.8,1.2,1.6,2.3,2,3h1.5L358.8,190.8"/>
<path class="st0" d="M628.5,90.1c0,5.8,4.7,10.5,10.5,10.5c5.8,0,10.5-4.7,10.5-10.5c0-5.8-4.7-10.5-10.5-10.5
	C633.2,79.6,628.5,84.3,628.5,90.1 M626.8,90.1c0-6.8,5.5-12.2,12.2-12.2c6.8,0,12.2,5.5,12.2,12.2c0,6.8-5.5,12.2-12.2,12.2
	C632.3,102.4,626.8,96.9,626.8,90.1"/>
<path class="st2" d="M634.3,96.7c0.5-0.1,1-0.1,1.6-0.1c0.6,0,1.1,0.1,1.6,0.1v-6.4h0.1c0.5,0.8,1.1,1.7,1.4,2.2l2.5,4.2
	c0.7-0.1,1.3-0.1,1.9-0.1c0.7,0,1.3,0.1,2,0.1l-0.9-1.2c-1.3-1.9-2.6-3.7-3.7-5.6c2-0.4,3.3-1.6,3.3-3.5c0-1.4-0.6-2.2-1.9-2.9
	c-0.9-0.4-2.5-0.4-3.4-0.4h-4.5V96.7 M637.5,84.2c1.3,0,2.9-0.2,3.2,1.5c0.1,0.4,0.1,0.7,0.1,1c0,2-1.1,3-3.3,2.8V84.2z"/>
</svg>
